<svg width="48" height="48" viewBox="0 0 48 48" fill="none" xmlns="http://www.w3.org/2000/svg">
<path d="M0 24C0 12.6863 0 7.02944 3.51472 3.51472C7.02944 0 12.6863 0 24 0C35.3137 0 40.9706 0 44.4853 3.51472C48 7.02944 48 12.6863 48 24C48 35.3137 48 40.9706 44.4853 44.4853C40.9706 48 35.3137 48 24 48C12.6863 48 7.02944 48 3.51472 44.4853C0 40.9706 0 35.3137 0 24Z" fill="url(#paint0_linear_11_29)"/>
<path fill-rule="evenodd" clip-rule="evenodd" d="M16.8259 36.0427C18.7012 36.0464 20.3756 34.6263 21.4876 32.3903L29.6771 30.1959C31.7582 31.5764 33.9183 31.969 35.5405 31.0281C38.4481 29.3416 38.5265 24.0093 35.7157 19.1181C32.9048 14.227 28.269 11.6291 25.3614 13.3156C24.7541 13.6679 24.2702 14.1792 23.9103 14.8123L18.7901 16.1843C18.1618 15.8159 17.4871 15.6151 16.785 15.6136C13.4237 15.6069 10.7079 20.1746 10.7192 25.8159C10.7305 31.4572 13.4646 36.0359 16.8259 36.0427Z" fill="white"/>
<path fill-rule="evenodd" clip-rule="evenodd" d="M13.3469 19.1078C12.3565 20.7736 11.7139 23.142 11.7192 25.8139C11.7246 28.4856 12.3766 30.8578 13.3749 32.5296C14.3859 34.2227 15.6389 35.0403 16.8279 35.0427C18.1515 35.0453 19.5566 34.0275 20.5922 31.945L20.7931 31.5411L29.854 29.1132L30.2299 29.3626C32.168 30.6482 33.8939 30.8272 35.0388 30.1631C36.0673 29.5665 36.7436 28.2319 36.7726 26.2601C36.8013 24.3133 36.1799 21.9328 34.8486 19.6164C33.5173 17.2998 31.7766 15.57 30.0859 14.6226C28.3744 13.6634 26.8898 13.5851 25.8631 14.1806C25.4255 14.4345 25.0619 14.8099 24.7796 15.3065L24.573 15.67L18.645 17.2584L18.2843 17.0469C17.7915 16.758 17.2889 16.6147 16.783 16.6136C15.5961 16.6112 14.3496 17.4213 13.3469 19.1078ZM11.6278 18.0857C12.8206 16.0796 14.6126 14.6093 16.7871 14.6136C17.5375 14.6152 18.2521 14.7957 18.9123 15.1163L23.2705 13.9485C23.6819 13.3408 24.2105 12.8271 24.8596 12.4506C26.7406 11.3596 29.0277 11.7369 31.0637 12.8779C33.1205 14.0305 35.1031 16.0453 36.5827 18.6199C38.0623 21.1946 38.8072 23.9259 38.7724 26.2896C38.738 28.6283 37.9214 30.8032 36.0422 31.8931C34.0637 33.0408 31.6456 32.5683 29.5122 31.2754L22.1701 33.2427C20.9691 35.4291 19.1112 37.0473 16.8239 37.0427C14.6515 37.0383 12.8569 35.5631 11.6577 33.5549C10.4458 31.5253 9.72516 28.7875 9.71922 25.8179C9.71328 22.8484 10.4229 20.1123 11.6278 18.0857Z" fill="white"/>
<path d="M18.8214 26.8409L20.2703 26.4526L20.4644 27.1771C20.5716 27.5772 20.3342 27.9884 19.9341 28.0956C19.534 28.2029 19.1228 27.9654 19.0155 27.5653L18.8214 26.8409Z" fill="#1BCE55"/>
<path d="M16.2599 25.9743C16.1527 25.5742 16.3901 25.163 16.7902 25.0558L19.688 24.2793L20.0762 25.7282L17.1784 26.5047C16.7783 26.6119 16.3671 26.3744 16.2599 25.9743Z" fill="#1BCE55"/>
<path d="M19.688 24.2793L21.1369 23.8911C21.537 23.7839 21.9482 24.0213 22.0554 24.4214C22.1626 24.8215 21.9252 25.2328 21.5251 25.34L20.0762 25.7282L19.688 24.2793Z" fill="#1BCE55"/>
<path d="M17.9163 23.4627C17.7729 22.9278 17.9811 22.4073 18.3812 22.3001C18.7813 22.1929 19.2218 22.5396 19.3652 23.0745L20.4686 27.1926C20.5758 27.5927 20.3384 28.004 19.9383 28.1112C19.5382 28.2184 19.1269 27.981 19.0197 27.5809L17.9163 23.4627Z" fill="#1BCE55"/>
<path d="M31.1843 22.7518C31.5844 22.6446 31.8218 22.2333 31.7146 21.8332C31.6074 21.4331 31.1961 21.1957 30.796 21.3029L26.4494 22.4676C26.0493 22.5748 25.8118 22.986 25.9191 23.3861C26.0263 23.7862 26.4375 24.0237 26.8376 23.9165L31.1843 22.7518Z" fill="#1BCE55"/>
<defs>
<linearGradient id="paint0_linear_11_29" x1="0" y1="0" x2="48" y2="48" gradientUnits="userSpaceOnUse">
<stop stop-color="#16DB65"/>
<stop offset="1" stop-color="#1FC54A"/>
</linearGradient>
</defs>
</svg>
