<svg width="34" height="30" viewBox="0 0 34 30" fill="none" xmlns="http://www.w3.org/2000/svg">
<path fill-rule="evenodd" clip-rule="evenodd" d="M10.0122 5.61365C7.83777 5.60927 6.04571 7.07964 4.853 9.08569C3.64804 11.1123 2.93843 13.8485 2.94437 16.8179C2.95031 19.7875 3.67091 22.5253 4.88286 24.5549C6.08203 26.5632 7.8767 28.0383 10.049 28.0427C12.3363 28.0473 14.1942 26.4291 15.3953 24.2427L22.7374 22.2754C24.8708 23.5683 27.2888 24.0408 29.2674 22.8931C31.1465 21.8032 31.9632 19.6283 31.9976 17.2896C32.0323 14.9259 31.2875 12.1946 29.8078 9.61986C28.3282 7.04527 26.3457 5.03053 24.2888 3.87788C22.2529 2.73694 19.9657 2.3596 18.0848 3.45061C17.4356 3.82715 16.9071 4.34083 16.4956 4.94849L12.1374 6.11626C11.4772 5.79576 10.7627 5.61516 10.0122 5.61365ZM21.2656 10.7119C20.8655 10.8191 20.6281 11.2304 20.7353 11.6305C20.8425 12.0306 21.2537 12.268 21.6538 12.1608C22.0539 12.0536 22.2914 11.6423 22.1842 11.2422C22.077 10.8421 21.6657 10.6047 21.2656 10.7119ZM22.4303 15.0586C22.0302 15.1658 21.7928 15.577 21.9 15.9771C22.0072 16.3772 22.4184 16.6147 22.8185 16.5075C23.2186 16.4003 23.4561 15.989 23.3488 15.5889C23.2416 15.1888 22.8304 14.9514 22.4303 15.0586ZM19.1443 14.3861C19.0371 13.986 19.2745 13.5748 19.6746 13.4676C20.0747 13.3604 20.486 13.5978 20.5932 13.9979C20.7004 14.398 20.4629 14.8093 20.0628 14.9165C19.6627 15.0237 19.2515 14.7862 19.1443 14.3861ZM24.0213 12.3029C23.6212 12.4101 23.3837 12.8214 23.4909 13.2215C23.5982 13.6216 24.0094 13.859 24.4095 13.7518C24.8096 13.6446 25.047 13.2333 24.9398 12.8332C24.8326 12.4331 24.4214 12.1957 24.0213 12.3029ZM13.4955 17.4526L13.6896 18.1771L13.6938 18.1926C13.801 18.5927 13.5635 19.004 13.1634 19.1112C12.7633 19.2184 12.3521 18.981 12.2449 18.5809L12.2415 18.5684L12.2407 18.5653L12.0466 17.8409L11.8525 17.1164L10.4036 17.5047C10.0035 17.6119 9.59223 17.3744 9.48502 16.9743C9.37782 16.5742 9.61526 16.163 10.0154 16.0558L11.4643 15.6675L11.1414 14.4627C10.9981 13.9278 11.2062 13.4073 11.6063 13.3001C12.0064 13.1929 12.447 13.5396 12.5903 14.0745L12.9131 15.2793L14.362 14.8911C14.7621 14.7839 15.1734 15.0213 15.2806 15.4214C15.3878 15.8215 15.1503 16.2328 14.7502 16.34L13.3014 16.7282L13.4955 17.4526Z" fill="#1BCE55"/>
</svg>
