<svg width="34" height="29" viewBox="0 0 34 29" fill="none" xmlns="http://www.w3.org/2000/svg">
<mask id="path-1-outside-1_13_12" maskUnits="userSpaceOnUse" x="0" y="0" width="34" height="29" fill="black">
<rect fill="white" width="34" height="29"/>
<path fill-rule="evenodd" clip-rule="evenodd" d="M10.051 26.4221C11.9263 26.4258 13.6007 25.0057 14.7127 22.7697L22.9022 20.5753C24.9833 21.9558 27.1434 22.3484 28.7656 21.4075C31.6732 19.721 31.7516 14.3887 28.9408 9.49752C26.1299 4.60635 21.4941 2.00849 18.5865 3.69502C17.9792 4.04728 17.4953 4.5586 17.1354 5.19172L12.0152 6.56367C11.3869 6.19532 10.7122 5.99445 10.0101 5.99304C6.6488 5.98627 3.93303 10.554 3.94432 16.1953C3.9556 21.8366 6.68965 26.4153 10.051 26.4221Z"/>
<path fill-rule="evenodd" clip-rule="evenodd" d="M6.57204 9.48718C5.58161 11.153 4.93897 13.5214 4.94431 16.1933C4.94966 18.865 5.60173 21.2372 6.59996 22.909C7.61097 24.6021 8.864 25.4197 10.053 25.4221C11.3766 25.4247 12.7817 24.4068 13.8173 22.3244L14.0182 21.9205L23.0791 19.4926L23.455 19.742C25.3931 21.0276 27.119 21.2066 28.2639 20.5425C29.2924 19.9459 29.9687 18.6113 29.9977 16.6395C30.0264 14.6927 29.405 12.3122 28.0737 9.99578C26.7424 7.67921 25.0017 5.94943 23.311 5.00199C21.5995 4.04283 20.1149 3.96451 19.0882 4.56004C18.6506 4.81387 18.287 5.18932 18.0047 5.68592L17.7981 6.04943L11.8701 7.63782L11.5094 7.42633C11.0166 7.13741 10.514 6.99406 10.0081 6.99304C8.82121 6.99065 7.57473 7.80075 6.57204 9.48718ZM4.85294 8.46508C6.04566 6.45903 7.83772 4.98866 10.0122 4.99304C10.7626 4.99455 11.4772 5.17515 12.1374 5.49566L16.4955 4.32788C16.907 3.72022 17.4356 3.20654 18.0847 2.83C19.9656 1.73899 22.2528 2.11634 24.2888 3.25727C26.3456 4.40992 28.3282 6.42466 29.8078 8.99925C31.2874 11.574 32.0323 14.3053 31.9975 16.6689C31.9631 19.0077 31.1465 21.1826 29.2673 22.2725C27.2888 23.4202 24.8707 22.9477 22.7373 21.6548L15.3952 23.6221C14.1942 25.8085 12.3363 27.4267 10.049 27.4221C7.87665 27.4177 6.08197 25.9425 4.8828 23.9343C3.67085 21.9047 2.95026 19.1669 2.94432 16.1973C2.93838 13.2278 3.64798 10.4917 4.85294 8.46508Z"/>
</mask>
<path fill-rule="evenodd" clip-rule="evenodd" d="M10.051 26.4221C11.9263 26.4258 13.6007 25.0057 14.7127 22.7697L22.9022 20.5753C24.9833 21.9558 27.1434 22.3484 28.7656 21.4075C31.6732 19.721 31.7516 14.3887 28.9408 9.49752C26.1299 4.60635 21.4941 2.00849 18.5865 3.69502C17.9792 4.04728 17.4953 4.5586 17.1354 5.19172L12.0152 6.56367C11.3869 6.19532 10.7122 5.99445 10.0101 5.99304C6.6488 5.98627 3.93303 10.554 3.94432 16.1953C3.9556 21.8366 6.68965 26.4153 10.051 26.4221Z" fill="#1BCE55"/>
<path fill-rule="evenodd" clip-rule="evenodd" d="M6.57204 9.48718C5.58161 11.153 4.93897 13.5214 4.94431 16.1933C4.94966 18.865 5.60173 21.2372 6.59996 22.909C7.61097 24.6021 8.864 25.4197 10.053 25.4221C11.3766 25.4247 12.7817 24.4068 13.8173 22.3244L14.0182 21.9205L23.0791 19.4926L23.455 19.742C25.3931 21.0276 27.119 21.2066 28.2639 20.5425C29.2924 19.9459 29.9687 18.6113 29.9977 16.6395C30.0264 14.6927 29.405 12.3122 28.0737 9.99578C26.7424 7.67921 25.0017 5.94943 23.311 5.00199C21.5995 4.04283 20.1149 3.96451 19.0882 4.56004C18.6506 4.81387 18.287 5.18932 18.0047 5.68592L17.7981 6.04943L11.8701 7.63782L11.5094 7.42633C11.0166 7.13741 10.514 6.99406 10.0081 6.99304C8.82121 6.99065 7.57473 7.80075 6.57204 9.48718ZM4.85294 8.46508C6.04566 6.45903 7.83772 4.98866 10.0122 4.99304C10.7626 4.99455 11.4772 5.17515 12.1374 5.49566L16.4955 4.32788C16.907 3.72022 17.4356 3.20654 18.0847 2.83C19.9656 1.73899 22.2528 2.11634 24.2888 3.25727C26.3456 4.40992 28.3282 6.42466 29.8078 8.99925C31.2874 11.574 32.0323 14.3053 31.9975 16.6689C31.9631 19.0077 31.1465 21.1826 29.2673 22.2725C27.2888 23.4202 24.8707 22.9477 22.7373 21.6548L15.3952 23.6221C14.1942 25.8085 12.3363 27.4267 10.049 27.4221C7.87665 27.4177 6.08197 25.9425 4.8828 23.9343C3.67085 21.9047 2.95026 19.1669 2.94432 16.1973C2.93838 13.2278 3.64798 10.4917 4.85294 8.46508Z" fill="#1BCE55"/>
<path d="M10.051 26.4221L10.054 24.9221L10.054 24.9221L10.051 26.4221ZM14.7127 22.7697L14.3245 21.3208L13.6709 21.4959L13.3696 22.1018L14.7127 22.7697ZM22.9022 20.5753L23.7314 19.3253L23.1676 18.9513L22.514 19.1264L22.9022 20.5753ZM28.7656 21.4075L28.013 20.11L28.013 20.11L28.7656 21.4075ZM28.9408 9.49752L27.6402 10.2449L27.6402 10.2449L28.9408 9.49752ZM18.5865 3.69502L19.3391 4.99254L19.3391 4.99254L18.5865 3.69502ZM17.1354 5.19172L17.5236 6.64061L18.1294 6.47828L18.4394 5.93302L17.1354 5.19172ZM12.0152 6.56367L11.2565 7.85766L11.7976 8.17489L12.4034 8.01256L12.0152 6.56367ZM10.0101 5.99304L10.0071 7.49304L10.0071 7.49304L10.0101 5.99304ZM3.94432 16.1953L2.44432 16.1983L2.44432 16.1983L3.94432 16.1953ZM6.57204 9.48718L7.86137 10.2538L7.86137 10.2538L6.57204 9.48718ZM4.94431 16.1933L3.44432 16.1963L3.44432 16.1963L4.94431 16.1933ZM6.59996 22.909L5.31209 23.678L5.31209 23.678L6.59996 22.909ZM10.053 25.4221L10.056 23.9221L10.056 23.9221L10.053 25.4221ZM13.8173 22.3244L15.1604 22.9923L15.1604 22.9923L13.8173 22.3244ZM14.0182 21.9205L13.6299 20.4716L12.9764 20.6467L12.6751 21.2526L14.0182 21.9205ZM23.0791 19.4926L23.9083 18.2426L23.3445 17.8686L22.6909 18.0437L23.0791 19.4926ZM23.455 19.742L22.6258 20.992L22.6258 20.992L23.455 19.742ZM28.2639 20.5425L27.5112 19.245L27.5112 19.245L28.2639 20.5425ZM29.9977 16.6395L28.4979 16.6175L28.4979 16.6175L29.9977 16.6395ZM28.0737 9.99578L26.7732 10.7432L26.7732 10.7432L28.0737 9.99578ZM23.311 5.00199L24.0443 3.69345L24.0443 3.69345L23.311 5.00199ZM19.0882 4.56004L18.3356 3.26251L18.3356 3.26251L19.0882 4.56004ZM18.0047 5.68592L16.7007 4.94462L16.7007 4.94463L18.0047 5.68592ZM17.7981 6.04943L18.1863 7.49831L18.7921 7.33598L19.1021 6.79072L17.7981 6.04943ZM11.8701 7.63782L11.1114 8.93181L11.6525 9.24904L12.2583 9.08671L11.8701 7.63782ZM11.5094 7.42633L10.7507 8.72032L10.7507 8.72032L11.5094 7.42633ZM10.0081 6.99304L10.0111 5.49304L10.0111 5.49304L10.0081 6.99304ZM4.85294 8.46508L6.14227 9.23166L6.14227 9.23166L4.85294 8.46508ZM10.0122 4.99304L10.0091 6.49304L10.0091 6.49304L10.0122 4.99304ZM12.1374 5.49566L11.4823 6.84505L11.9854 7.08929L12.5256 6.94454L12.1374 5.49566ZM16.4955 4.32788L16.8838 5.77677L17.424 5.63202L17.7376 5.16894L16.4955 4.32788ZM18.0847 2.83L17.3321 1.53248L17.3321 1.53248L18.0847 2.83ZM24.2888 3.25727L23.5555 4.56581L23.5555 4.56581L24.2888 3.25727ZM29.8078 8.99925L31.1083 8.25185L31.1083 8.25185L29.8078 8.99925ZM31.9975 16.6689L33.4974 16.691L33.4974 16.691L31.9975 16.6689ZM29.2673 22.2725L30.02 23.57L30.02 23.57L29.2673 22.2725ZM22.7373 21.6548L23.5148 20.372L22.9674 20.0402L22.3491 20.2059L22.7373 21.6548ZM15.3952 23.6221L15.007 22.1732L14.3887 22.3388L14.0805 22.8999L15.3952 23.6221ZM10.049 27.4221L10.046 28.9221L10.046 28.9221L10.049 27.4221ZM4.8828 23.9343L3.59493 24.7033L3.59493 24.7033L4.8828 23.9343ZM2.94432 16.1973L4.44431 16.1943L4.44431 16.1943L2.94432 16.1973ZM10.048 27.9221C12.751 27.9275 14.8292 25.904 16.0558 23.4376L13.3696 22.1018C12.3722 24.1074 11.1017 24.9242 10.054 24.9221L10.048 27.9221ZM15.1009 24.2186L23.2905 22.0242L22.514 19.1264L14.3245 21.3208L15.1009 24.2186ZM22.0731 21.8253C24.3685 23.348 27.18 24.0612 29.5182 22.705L28.013 20.11C27.1067 20.6356 25.598 20.5636 23.7314 19.3253L22.0731 21.8253ZM29.5182 22.705C31.61 21.4917 32.4617 19.1068 32.4975 16.6763C32.5337 14.2084 31.758 11.3894 30.2413 8.75012L27.6402 10.2449C28.9343 12.4968 29.5249 14.7895 29.4978 16.6322C29.4701 18.5122 28.8289 19.6367 28.013 20.11L29.5182 22.705ZM30.2413 8.75012C28.7246 6.11103 26.6816 4.02505 24.5332 2.82109C22.4161 1.63471 19.9283 1.18261 17.8339 2.39749L19.3391 4.99254C20.1522 4.52089 21.4361 4.52446 23.0666 5.43817C24.6657 6.33431 26.346 7.99285 27.6402 10.2449L30.2413 8.75012ZM17.8339 2.39749C16.972 2.8974 16.3077 3.61252 15.8313 4.45043L18.4394 5.93302C18.6829 5.50468 18.9863 5.19716 19.3391 4.99254L17.8339 2.39749ZM16.7471 3.74283L11.627 5.11478L12.4034 8.01256L17.5236 6.64061L16.7471 3.74283ZM12.7739 5.26968C11.9424 4.78219 11.0095 4.49505 10.0132 4.49304L10.0071 7.49304C10.4149 7.49386 10.8315 7.60846 11.2565 7.85766L12.7739 5.26968ZM10.0132 4.49304C7.59185 4.48817 5.66339 6.1236 4.42317 8.20956C3.16458 10.3264 2.43823 13.1544 2.44432 16.1983L5.44431 16.1923C5.43912 13.5948 6.06501 11.3183 7.00182 9.74271C7.95699 8.13618 9.06709 7.49114 10.0071 7.49304L10.0132 4.49304ZM2.44432 16.1983C2.45041 19.2424 3.18813 22.0715 4.45351 24.1907C5.69972 26.2777 7.62981 27.9172 10.048 27.9221L10.054 24.9221C9.11083 24.9202 7.99322 24.267 7.02925 22.6526C6.08444 21.0704 5.44951 18.7895 5.44431 16.1923L2.44432 16.1983ZM5.28272 8.72061C4.13143 10.657 3.43853 13.3011 3.44432 16.1963L6.44431 16.1903C6.43941 13.7417 7.03178 11.6491 7.86137 10.2538L5.28272 8.72061ZM3.44432 16.1963C3.45011 19.0915 4.15361 21.7379 5.31209 23.678L7.88783 22.1399C7.04984 20.7366 6.44921 18.6385 6.44431 16.1903L3.44432 16.1963ZM5.31209 23.678C6.46708 25.6122 8.12739 26.9182 10.05 26.9221L10.056 23.9221C9.6006 23.9211 8.75486 23.5919 7.88783 22.1399L5.31209 23.678ZM10.05 26.9221C12.1961 26.9264 14.0069 25.3119 15.1604 22.9923L12.4742 21.6565C11.5566 23.5018 10.557 23.9231 10.056 23.9221L10.05 26.9221ZM15.1604 22.9923L15.3613 22.5884L12.6751 21.2526L12.4742 21.6565L15.1604 22.9923ZM14.4064 23.3694L23.4674 20.9415L22.6909 18.0437L13.6299 20.4716L14.4064 23.3694ZM22.2499 20.7426L22.6258 20.992L24.2842 18.492L23.9083 18.2426L22.2499 20.7426ZM22.6258 20.992C24.7847 22.424 27.16 22.9168 29.0165 21.84L27.5112 19.245C27.0779 19.4963 26.0016 19.6312 24.2842 18.492L22.6258 20.992ZM29.0165 21.84C30.6796 20.8754 31.4644 18.9142 31.4976 16.6616L28.4979 16.6175C28.473 18.3085 27.9052 19.0164 27.5112 19.245L29.0165 21.84ZM31.4976 16.6616C31.5308 14.4022 30.8169 11.7586 29.3743 9.24838L26.7732 10.7432C27.9931 12.8659 28.5219 14.9831 28.4979 16.6175L31.4976 16.6616ZM29.3743 9.24838C27.9317 6.73822 26.0096 4.79476 24.0443 3.69345L22.5777 6.31053C23.9938 7.1041 25.5531 8.6202 26.7732 10.7432L29.3743 9.24838ZM24.0443 3.69345C22.0845 2.59515 19.9995 2.2974 18.3356 3.26251L19.8408 5.85756C20.2303 5.63162 21.1144 5.49052 22.5777 6.31053L24.0443 3.69345ZM18.3356 3.26251C17.6436 3.66387 17.0995 4.24301 16.7007 4.94462L19.3087 6.42721C19.4745 6.13563 19.6576 5.96387 19.8408 5.85756L18.3356 3.26251ZM16.7007 4.94463L16.494 5.30814L19.1021 6.79072L19.3087 6.42721L16.7007 4.94463ZM17.4098 4.60054L11.4819 6.18893L12.2583 9.08671L18.1863 7.49831L17.4098 4.60054ZM12.6288 6.34382L12.2681 6.13234L10.7507 8.72032L11.1114 8.93181L12.6288 6.34382ZM12.2681 6.13234C11.5719 5.72414 10.8111 5.49465 10.0111 5.49304L10.0051 8.49303C10.217 8.49346 10.4614 8.55068 10.7507 8.72032L12.2681 6.13234ZM10.0111 5.49304C8.08763 5.48917 6.43086 6.78952 5.28272 8.72061L7.86137 10.2538C8.71859 8.81197 9.5548 8.49213 10.0051 8.49303L10.0111 5.49304ZM6.14227 9.23166C7.19444 7.46199 8.57804 6.49016 10.0091 6.49304L10.0152 3.49304C7.0974 3.48717 4.89687 5.45607 3.56362 7.6985L6.14227 9.23166ZM10.0091 6.49304C10.5153 6.49406 11.0082 6.61488 11.4823 6.84505L12.7925 4.14627C11.9462 3.73542 11.0099 3.49505 10.0152 3.49304L10.0091 6.49304ZM12.5256 6.94454L16.8838 5.77677L16.1073 2.87899L11.7491 4.04677L12.5256 6.94454ZM17.7376 5.16894C18.0331 4.73256 18.3995 4.38151 18.8373 4.12753L17.3321 1.53248C16.4717 2.03156 15.781 2.70788 15.2535 3.48683L17.7376 5.16894ZM18.8373 4.12753C20.0753 3.40949 21.7594 3.55932 23.5555 4.56581L25.0221 1.94873C22.7462 0.673355 19.856 0.0685001 17.3321 1.53248L18.8373 4.12753ZM23.5555 4.56581C25.3376 5.56452 27.1388 7.3655 28.5072 9.74665L31.1083 8.25185C29.5176 5.48382 27.3536 3.25533 25.0221 1.94873L23.5555 4.56581ZM28.5072 9.74665C29.8756 12.1277 30.5278 14.5959 30.4977 16.6469L33.4974 16.691C33.5367 14.0146 32.6992 11.0202 31.1083 8.25185L28.5072 9.74665ZM30.4977 16.6469C30.4673 18.7142 29.7536 20.2564 28.5147 20.975L30.02 23.57C32.5393 22.1087 33.459 19.3012 33.4974 16.691L30.4977 16.6469ZM28.5147 20.975C27.2135 21.7298 25.4215 21.5276 23.5148 20.372L21.9599 22.9375C24.3199 24.3679 27.3641 25.1105 30.02 23.57L28.5147 20.975ZM22.3491 20.2059L15.007 22.1732L15.7835 25.071L23.1256 23.1036L22.3491 20.2059ZM14.0805 22.8999C13.0071 24.854 11.5563 25.9251 10.052 25.9221L10.046 28.9221C13.1162 28.9282 15.3813 26.763 16.7099 24.3443L14.0805 22.8999ZM10.052 25.9221C8.61978 25.9192 7.23066 24.9404 6.17067 23.1653L3.59493 24.7033C4.93329 26.9447 7.13351 28.9162 10.046 28.9221L10.052 25.9221ZM6.17067 23.1653C5.11904 21.4041 4.44981 18.9406 4.44431 16.1943L1.44432 16.2003C1.45071 19.3932 2.22266 22.4052 3.59493 24.7033L6.17067 23.1653ZM4.44431 16.1943C4.43882 13.448 5.09824 10.9876 6.14227 9.23166L3.56362 7.6985C2.19773 9.99582 1.43794 13.0077 1.44432 16.2003L4.44431 16.1943Z" fill="white" mask="url(#path-1-outside-1_13_12)"/>
<path d="M12.0465 17.2203L13.4954 16.832L13.6895 17.5565C13.7967 17.9566 13.5593 18.3678 13.1592 18.475C12.7591 18.5823 12.3479 18.3448 12.2406 17.9447L12.0465 17.2203Z" fill="white"/>
<path d="M9.48497 16.3537C9.37776 15.9536 9.6152 15.5424 10.0153 15.4352L12.9131 14.6587L13.3013 16.1076L10.4035 16.8841C10.0034 16.9913 9.59218 16.7538 9.48497 16.3537Z" fill="white"/>
<path d="M12.9131 14.6587L14.362 14.2705C14.7621 14.1633 15.1733 14.4007 15.2805 14.8008C15.3877 15.2009 15.1503 15.6122 14.7502 15.7194L13.3013 16.1076L12.9131 14.6587Z" fill="white"/>
<path d="M11.1414 13.8421C10.998 13.3072 11.2062 12.7867 11.6063 12.6795C12.0064 12.5723 12.4469 12.919 12.5903 13.4539L13.6937 17.572C13.8009 17.9721 13.5635 18.3834 13.1634 18.4906C12.7633 18.5978 12.352 18.3603 12.2448 17.9602L11.1414 13.8421Z" fill="white"/>
<path d="M24.4094 13.1311C24.8095 13.0239 25.0469 12.6127 24.9397 12.2126C24.8325 11.8125 24.4212 11.575 24.0211 11.6822L19.6745 12.8469C19.2744 12.9541 19.0369 13.3654 19.1441 13.7655C19.2514 14.1656 19.6626 14.403 20.0627 14.2958L24.4094 13.1311Z" fill="white"/>
</svg>
