<svg width="34" height="30" viewBox="0 0 34 30" fill="none" xmlns="http://www.w3.org/2000/svg">
<path fill-rule="evenodd" clip-rule="evenodd" d="M4.853 9.08569C6.04571 7.07964 7.83777 5.60927 10.0122 5.61365C10.7627 5.61516 11.4772 5.79576 12.1374 6.11626L16.4956 4.94849C16.9071 4.34083 17.4356 3.82715 18.0848 3.45061C19.9657 2.3596 22.2529 2.73694 24.2888 3.87788C26.3457 5.03053 28.3282 7.04527 29.8078 9.61986C31.2875 12.1946 32.0323 14.9259 31.9976 17.2896C31.9632 19.6283 31.1465 21.8032 29.2674 22.8931C27.2888 24.0408 24.8708 23.5683 22.7374 22.2754L15.3953 24.2427C14.1942 26.4291 12.3363 28.0473 10.049 28.0427C7.8767 28.0383 6.08203 26.5632 4.88286 24.5549C3.67091 22.5253 2.95031 19.7875 2.94437 16.8179C2.93843 13.8485 3.64804 11.1123 4.853 9.08569ZM11.1414 14.4627C10.9981 13.9278 11.2062 13.4073 11.6063 13.3001C12.0064 13.1929 12.447 13.5396 12.5903 14.0745L12.9131 15.2793L14.362 14.8911C14.7621 14.7839 15.1734 15.0213 15.2806 15.4214C15.3878 15.8215 15.1503 16.2328 14.7502 16.34L13.3014 16.7282L13.4955 17.4526L13.6896 18.1771L13.6938 18.1926C13.801 18.5927 13.5635 19.004 13.1634 19.1112C12.7633 19.2184 12.3521 18.981 12.2449 18.5809L12.2416 18.5686L12.2407 18.5653L12.0466 17.8409L11.8525 17.1164L10.4036 17.5047C10.0035 17.6119 9.59223 17.3744 9.48503 16.9743C9.37782 16.5742 9.61526 16.163 10.0154 16.0558L11.4643 15.6675L11.1414 14.4627ZM24.9397 12.8332C25.0469 13.2333 24.8095 13.6446 24.4094 13.7518L20.0627 14.9165C19.6626 15.0237 19.2514 14.7862 19.1441 14.3861C19.0369 13.986 19.2744 13.5748 19.6745 13.4676L24.0211 12.3029C24.4212 12.1957 24.8325 12.4331 24.9397 12.8332Z" fill="#1BCE55"/>
</svg>
